<svg xmlns="http://www.w3.org/2000/svg" version="1.1" xmlns:xlink="http://www.w3.org/1999/xlink" xmlns:svgjs="http://svgjs.dev/svgjs" width="2000" height="540" viewBox="0 0 2000 540"><g transform="matrix(1,0,0,1,-1.2121212121212466,-1.1862237863434189)"><svg viewBox="0 0 396 107" data-background-color="#fafafa" preserveAspectRatio="xMidYMid meet" height="540" width="2000" xmlns="http://www.w3.org/2000/svg" xmlns:xlink="http://www.w3.org/1999/xlink"><g id="tight-bounds" transform="matrix(1,0,0,1,0.2400000000000091,0.23504804655323142)"><svg viewBox="0 0 395.52 106.52990240052681" height="106.52990240052681" width="395.52"><g><svg viewBox="0 0 397.4975999999999 107.06255191252943" height="106.52990240052681" width="395.52"><g><rect width="397.4975999999999" height="3.279184560676925" x="0" y="58.83687200654209" fill="#130912" opacity="1" stroke-width="0" stroke="transparent" fill-opacity="1" class="rect-o-0" data-fill-palette-color="primary" rx="1%" id="o-0" data-palette-color="#130912"></rect></g><g transform="matrix(1,0,0,1,0.9887999999999693,70.70030934386017)"><svg viewBox="0 0 395.52 36.36224256866926" height="36.36224256866926" width="395.52"><g id="textblocktransform"><svg viewBox="0 0 395.52 36.36224256866926" height="36.36224256866926" width="395.52" id="textblock"><g><svg viewBox="0 0 395.52 36.36224256866926" height="36.36224256866926" width="395.52"><g transform="matrix(1,0,0,1,0,0)"><svg width="395.52" viewBox="1.2999999523162842 -35.79999923706055 398.6100158691406 36.64999771118164" height="36.36224256866926" data-palette-color="#130912"><path d="M7.9 0.4Q7.15 0.4 6.83 0.15 6.5-0.1 6.5-0.9L6.5-0.9Q6.5-3.4 10.15-18L10.15-18Q11.3-22.75 12.25-26.95 13.2-31.15 13.2-32.2L13.2-32.2Q13.2-32.7 12.98-32.88 12.75-33.05 12.15-33.05L12.15-33.05Q11.55-33.05 8.75-32.75L8.75-32.75Q4.7-32.3 3.35-32.3L3.35-32.3Q2.25-32.3 1.78-32.55 1.3-32.8 1.3-33.5L1.3-33.5Q1.3-34.6 1.7-35.8L1.7-35.8Q2.9-35.05 3.8-34.88 4.7-34.7 6.5-34.7L6.5-34.7Q9.9-34.7 15.6-35.3L15.6-35.3Q20.4-35.8 22.1-35.8L22.1-35.8Q27.2-35.8 30.15-33.5 33.1-31.2 33.1-26.5L33.1-26.5Q33.1-23.3 31.65-20.6 30.2-17.9 27.18-16.28 24.15-14.65 19.65-14.65L19.65-14.65Q17.25-14.65 15.95-15.13 14.65-15.6 14.65-16.5L14.65-16.5Q14.65-17.05 15.05-17.35L15.05-17.35Q15.65-17.15 16.95-16.98 18.25-16.8 19.55-16.8L19.55-16.8Q22.7-16.8 25.15-18.03 27.6-19.25 28.93-21.43 30.25-23.6 30.25-26.4L30.25-26.4Q30.25-30.05 27.88-31.78 25.5-33.5 20.65-33.5L20.65-33.5Q18.2-33.5 17.13-33.08 16.05-32.65 15.75-31.7L15.75-31.7Q15.25-30.35 13.68-23.43 12.1-16.5 10.8-9.8 9.5-3.1 9.5-1.15L9.5-1.15Q9.5-0.4 9.7 0.2L9.7 0.2Q8.9 0.4 7.9 0.4L7.9 0.4ZM62.8-17.65Q63.3-17.5 63.3-16.65L63.3-16.65Q63.3-15.4 62.3-14.08 61.3-12.75 59.57-11.9 57.85-11.05 55.8-11.05L55.8-11.05Q53.05-11.05 50.95-12.55L50.95-12.55Q50.65-11.1 50.2-9.6L50.2-9.6Q50.05-9.05 49.55-7.08 49.05-5.1 48.85-3.55L48.85-3.55Q48.5-2.75 47.45-1.83 46.4-0.9 44.95-0.25 43.5 0.4 42.1 0.4L42.1 0.4Q40.55 0.4 39.1-0.4 37.65-1.2 36.72-2.55 35.8-3.9 35.8-5.55L35.8-5.55Q36.5-7.65 36.95-9.5 37.4-11.35 37.8-13.25L37.8-13.25 38.3-15.75Q38.55-16.9 39.65-18.03 40.75-19.15 42.32-19.88 43.9-20.6 45.5-20.6L45.5-20.6Q46.1-20.6 47.2-20.4L47.2-20.4Q47.35-21.55 47.72-22 48.1-22.45 48.95-22.45L48.95-22.45Q49.45-22.45 50.1-22.3L50.1-22.3Q49.85-20.9 49.85-19.9L49.85-19.9Q49.85-17 51.6-15 53.35-13 56.35-13L56.35-13Q58.6-13 60.22-14.2 61.85-15.4 62.8-17.65L62.8-17.65ZM46.65-4.4Q47.05-6.4 47.8-8.95L47.8-8.95Q48.8-12.3 49.1-14.35L49.1-14.35Q48-15.75 47.6-17.75L47.6-17.75Q47.6-17.95 47.52-18.07 47.45-18.2 47.2-18.25L47.2-18.25Q46.45-18.55 45.5-18.55L45.5-18.55Q43.65-18.55 42.3-17.55 40.95-16.55 40.6-15.15L40.6-15.15Q40.45-14.55 39.5-10.45L39.5-10.45Q39.05-8.05 38.4-5.7L38.4-5.7Q38.4-3.85 39.65-2.83 40.9-1.8 42.3-1.8L42.3-1.8Q43.5-1.8 44.87-2.65 46.25-3.5 46.65-4.4L46.65-4.4ZM81.9-17.85Q82.09-17.8 82.25-17.55 82.4-17.3 82.4-17L82.4-17Q82.4-15.95 81.42-14.98 80.45-14 78.87-13.4 77.3-12.8 75.7-12.8L75.7-12.8Q73.2-12.8 71.42-14.1 69.65-15.4 69.15-17.75L69.15-17.75Q66.9-17.5 65.02-14.9 63.15-12.3 62.4-9.25L62.4-9.25Q62.3-8.75 61.65-6.18 61-3.6 60.4-0.1L60.4-0.1Q60.35 0.05 60.27 0.13 60.2 0.2 59.95 0.2L59.95 0.2Q59.6 0.2 58.9-0.1 58.2-0.4 58.2-0.75L58.2-0.75Q58.2-1.45 58.45-2.6L58.45-2.6Q61.5-16.7 62.4-20.05L62.4-20.05Q62.5-20.5 62.62-20.65 62.75-20.8 63.05-20.8L63.05-20.8Q63.25-20.8 63.9-20.48 64.55-20.15 64.95-19.8L64.95-19.8 64.05-16.9 63.75-15.9Q64.9-17.7 66.4-18.8 67.9-19.9 69.59-19.9L69.59-19.9Q70.09-19.9 70.59-19.8 71.09-19.7 71.3-19.55L71.3-19.55Q71.3-17.1 72.57-15.93 73.84-14.75 76.15-14.75L76.15-14.75Q78.2-14.75 79.55-15.45 80.9-16.15 81.9-17.85L81.9-17.85ZM97.09-8.3Q97.34-7.95 97.34-7.45L97.34-7.45Q97.34-7.05 97.19-6.75 97.04-6.45 96.69-6L96.69-6Q95.39-4.45 93.07-2.93 90.74-1.4 88.19-0.45 85.64 0.5 83.74 0.5L83.74 0.5Q81.59 0.5 80.17-0.83 78.74-2.15 78.74-4.8L78.74-4.8Q78.74-8.15 81.14-17.4L81.14-17.4 75.84-17.2Q75.74-17.25 75.57-17.38 75.39-17.5 75.34-17.6L75.34-17.6Q75.49-17.85 75.89-18.6 76.29-19.35 76.59-19.65L76.59-19.65 81.74-19.6Q83.39-25.7 85.54-32.15L85.54-32.15Q86.44-32.85 87.84-33.68 89.24-34.5 89.54-34.5L89.54-34.5Q89.99-34.3 90.09-33.95L90.09-33.95Q89.19-33.6 88.69-33.02 88.19-32.45 87.69-31.15L87.69-31.15Q86.24-27.45 84.19-19.6L84.19-19.6 96.94-19.55 96.99-18.75Q96.99-18.35 96.84-18.2 96.69-18.05 96.14-18L96.14-18Q95.44-17.95 83.64-17.5L83.64-17.5Q81.34-8.1 81.34-4.95L81.34-4.95Q81.34-3.2 82.19-2.38 83.04-1.55 84.79-1.55L84.79-1.55Q89.89-1.55 97.09-8.3L97.09-8.3ZM123.14-11.55Q123.79-11.55 123.79-10.25L123.79-10.25Q123.79-7.95 121.77-5.4 119.74-2.85 116.87-1.13 113.99 0.6 111.59 0.6L111.59 0.6Q109.64 0.6 108.59-0.6 107.54-1.8 107.34-3.7L107.34-3.7Q106.09-1.9 104.19-0.75 102.29 0.4 100.79 0.4L100.79 0.4Q99.49 0.4 98.22-0.48 96.94-1.35 96.14-2.63 95.34-3.9 95.29-5.05L95.29-5.05 97.74-15.15Q98.04-16.35 99.27-17.73 100.49-19.1 102.24-20 103.99-20.9 105.79-20.9L105.79-20.9Q108.09-20.9 109.84-19.35L109.84-19.35Q110.29-20.55 110.52-20.85 110.74-21.15 111.19-21.2L111.19-21.2 113.64-21.45 113.79-21.35Q112.79-20.55 112.34-18.85L112.34-18.85Q110.79-13.05 110.22-10.3 109.64-7.55 109.64-5.45L109.64-5.45Q109.64-3.35 110.19-2.38 110.74-1.4 112.04-1.4L112.04-1.4Q113.64-1.4 115.87-2.7 118.09-4 120.09-6.33 122.09-8.65 123.14-11.55L123.14-11.55ZM100.99-1.95Q101.84-1.95 103.07-2.55 104.29-3.15 105.37-4.28 106.44-5.4 106.84-6.85L106.84-6.85 107.79-10.95Q107.99-11.95 108.49-14.18 108.99-16.4 109.29-17.6L109.29-17.6Q107.89-19 105.89-19L105.89-19Q104.34-19 103.09-18.18 101.84-17.35 101.04-16.18 100.24-15 100.04-14.1L100.04-14.1 98.04-5.2Q98.14-3.95 99.04-2.95 99.94-1.95 100.99-1.95L100.99-1.95ZM164.99-35.15Q165.29-35.15 165.56-34.93 165.84-34.7 165.99-34.4L165.99-34.4Q165.89-34.2 165.29-32.88 164.69-31.55 164.59-30.7L164.59-30.7 164.09-30.75Q163.89-31.5 163.59-31.85 163.29-32.2 162.49-32.35L162.49-32.35Q161.04-32.65 156.64-32.88 152.24-33.1 149.59-33.1L149.59-33.1Q148.34-33.1 147.96-32.95 147.59-32.8 147.34-32.25L147.34-32.25Q145.74-27.95 143.39-19.75L143.39-19.75 148.89-19.75Q153.84-19.75 156.14-19.9 158.44-20.05 160.69-20.65L160.69-20.65 160.99-20.4Q160.79-20 160.64-19.43 160.49-18.85 160.39-18L160.39-18Q160.29-17.45 159.64-17.45L159.64-17.45 142.79-17.45Q140.29-8 140.29-4.7L140.29-4.7Q140.29-2.75 141.59-2.18 142.89-1.6 146.09-1.6L146.09-1.6Q158.59-1.6 163.29-6L163.29-6Q163.49-6 163.69-5.7L163.69-5.7Q163.29-5.25 163.04-3.88 162.79-2.5 162.74-2.2L162.74-2.2Q162.59-1.65 162.09-1.28 161.59-0.9 160.84-0.75L160.84-0.75Q157.19 0 154.09 0.33 150.99 0.65 147.69 0.65L147.69 0.65Q141.79 0.65 139.59-0.28 137.39-1.2 137.39-3.1L137.39-3.1Q137.39-4.45 138.16-8.03 138.94-11.6 140.34-17.45L140.34-17.45 139.09-17.45Q138.09-17.45 138.09-17.95L138.09-17.95Q138.09-18.35 138.64-19.05 139.19-19.75 139.64-19.75L139.64-19.75 140.94-19.75 141.24-20.95Q141.49-22 142.31-25.48 143.14-28.95 143.46-30.7 143.79-32.45 143.64-32.75L143.64-32.75Q143.49-33 143.09-33L143.09-33Q137.54-33 135.04-32.2L135.04-32.2 134.84-32.25Q134.79-32.95 135.09-34.08 135.39-35.2 135.64-35.45L135.64-35.45Q140.34-35.1 145.14-35.1L145.14-35.1 164.99-35.15ZM180.83-22.5Q183.78-21.6 185.18-20.28 186.58-18.95 186.58-16.3L186.58-16.3Q186.58-14.25 185.61-12.48 184.63-10.7 182.63-8.65 180.63-6.6 175.98-2.35L175.98-2.35Q175.13-1.6 173.43 0L173.43 0 171.38 0Q171.58-0.8 171.58-1.15L171.58-1.15 171.53-14.2 171.53-15.95Q171.53-17.45 171.31-17.88 171.08-18.3 170.18-18.3L170.18-18.3 166.73-18.35Q166.73-19 167.08-19.35L167.08-19.35Q168.88-19.55 169.76-19.78 170.63-20 171.33-20.3 172.03-20.6 172.48-20.8L172.48-20.8Q173.63-20.4 173.93-19.35 174.23-18.3 174.23-16.55L174.23-16.55Q174.23-12.05 174.08-7.7L174.08-7.7Q174.08-6.95 173.98-2.65L173.98-2.65Q179.68-8.6 181.73-11.65 183.78-14.7 183.78-16.85L183.78-16.85Q183.78-20.1 180.33-22.25L180.33-22.25 180.83-22.5ZM211.43-11.95Q212.33-11.8 212.33-10.95L212.33-10.95Q212.33-8.95 209.76-6.28 207.18-3.6 203.68-1.68 200.18 0.25 197.83 0.25L197.83 0.25Q195.58 0.25 193.93-0.93 192.28-2.1 191.41-3.55 190.53-5 190.53-5.7L190.53-5.7Q191.33-8.55 192.28-13.6L192.28-13.6 192.83-16.4Q193.03-17.4 194.28-18.48 195.53-19.55 197.08-20.28 198.63-21 199.58-21L199.58-21Q200.33-21 201.41-20.53 202.48-20.05 203.31-19.05 204.13-18.05 204.13-16.5L204.13-16.5Q204.13-14.7 202.93-13.1 201.73-11.5 199.38-10.5 197.03-9.5 193.73-9.5L193.73-9.5 193.03-6.15Q193.03-5.7 193.56-4.65 194.08-3.6 195.26-2.75 196.43-1.9 198.23-1.9L198.23-1.9Q200.63-1.9 203.28-3.48 205.93-5.05 208.13-7.4 210.33-9.75 211.43-11.95L211.43-11.95ZM199.18-18.95Q198.58-18.95 197.63-18.45 196.68-17.95 195.91-17.2 195.13-16.45 194.98-15.8L194.98-15.8Q194.48-13.55 194.08-11.25L194.08-11.25Q197.93-11.4 199.88-12.78 201.83-14.15 201.83-15.9L201.83-15.9Q201.83-17.15 200.93-18.05 200.03-18.95 199.18-18.95L199.18-18.95ZM233.53-12.2Q234.03-12.2 234.25-11.78 234.48-11.35 234.48-10.8L234.48-10.8Q234.48-9 232.58-6.25 230.68-3.5 227.75-1.45 224.83 0.6 221.98 0.6L221.98 0.6Q220.18 0.6 219.2-0.3 218.23-1.2 218.23-3.05L218.23-3.05Q218.23-5.6 219.63-9.98 221.03-14.35 222.18-17.25L222.18-17.25Q221.98-17.55 221.78-17.55L221.78-17.55Q221.58-17.55 221.33-17.4L221.33-17.4Q220.43-16.85 218.38-14.95 216.33-13.05 214.38-10.95 212.43-8.85 211.73-7.55L211.73-7.55Q210.93-5.4 210.73-4.83 210.53-4.25 210.33-2.95L210.33-2.95 209.88-0.7Q209.83-0.55 209.78-0.33 209.73-0.1 209.65-0.05 209.58 0 209.43 0L209.43 0Q208.98 0 208.25-0.1 207.53-0.2 207.53-0.4L207.53-0.4Q207.53-1 207.88-2.35 208.23-3.7 208.58-4.8 208.93-5.9 209.13-6.5L209.13-6.5 209.58-7.9Q211.03-12.9 211.55-15.18 212.08-17.45 212.58-20.25L212.58-20.25Q212.63-20.75 213.28-20.75L213.28-20.75Q213.73-20.75 214.3-20.53 214.88-20.3 214.98-19.9L214.98-19.9Q214.78-19 214.25-16.85 213.73-14.7 212.98-12.1L212.98-12.1Q215.88-15.35 219-18 222.13-20.65 223.18-20.65L223.18-20.65Q223.68-20.65 224.38-20.15 225.08-19.65 225.23-19.2L225.23-19.2Q223.63-14.9 222.18-9.83 220.73-4.75 220.73-3.15L220.73-3.15Q220.73-1.4 222.73-1.4L222.73-1.4Q225.68-1.4 228.7-4.7 231.73-8 233.53-12.2L233.53-12.2ZM250.88-8.3Q251.13-7.95 251.13-7.45L251.13-7.45Q251.13-7.05 250.98-6.75 250.83-6.45 250.48-6L250.48-6Q249.18-4.45 246.85-2.93 244.53-1.4 241.98-0.45 239.43 0.5 237.53 0.5L237.53 0.5Q235.38 0.5 233.95-0.83 232.53-2.15 232.53-4.8L232.53-4.8Q232.53-8.15 234.93-17.4L234.93-17.4 229.63-17.2Q229.53-17.25 229.35-17.38 229.18-17.5 229.13-17.6L229.13-17.6Q229.28-17.85 229.68-18.6 230.08-19.35 230.38-19.65L230.38-19.65 235.53-19.6Q237.18-25.7 239.33-32.15L239.33-32.15Q240.23-32.85 241.63-33.68 243.03-34.5 243.33-34.5L243.33-34.5Q243.78-34.3 243.88-33.95L243.88-33.95Q242.98-33.6 242.48-33.02 241.98-32.45 241.48-31.15L241.48-31.15Q240.03-27.45 237.98-19.6L237.98-19.6 250.73-19.55 250.78-18.75Q250.78-18.35 250.63-18.2 250.48-18.05 249.93-18L249.93-18Q249.23-17.95 237.43-17.5L237.43-17.5Q235.13-8.1 235.13-4.95L235.13-4.95Q235.13-3.2 235.98-2.38 236.83-1.55 238.58-1.55L238.58-1.55Q243.68-1.55 250.88-8.3L250.88-8.3ZM275.22 0.85Q271.57 0.85 268.52-0.63 265.47-2.1 263.65-5.15 261.82-8.2 261.82-12.75L261.82-12.75Q261.82-18.55 264.72-23.88 267.62-29.2 272.6-32.5 277.57-35.8 283.47-35.8L283.47-35.8Q286.67-35.8 289.47-34.83 292.27-33.85 293.37-32.2L293.37-32.2Q292.87-30.9 292.5-28.93 292.12-26.95 292.07-25.2L292.07-25.2 290.82-25Q290.82-25.75 290.75-26.85 290.67-27.95 290.52-28.85L290.52-28.85Q290.17-31.2 288.55-32.45 286.92-33.7 283.62-33.7L283.62-33.7Q278.27-33.7 273.95-30.6 269.62-27.5 267.17-22.65 264.72-17.8 264.72-12.85L264.72-12.85Q264.72-9.05 266.2-6.53 267.67-4 270.15-2.78 272.62-1.55 275.67-1.55L275.67-1.55Q280.92-1.55 285.47-4.98 290.02-8.4 292.37-14.75L292.37-14.75Q293.72-14.75 293.72-12.9L293.72-12.9Q293.72-10.3 291.12-7.03 288.52-3.75 284.25-1.45 279.97 0.85 275.22 0.85L275.22 0.85ZM320.62-11.95Q321.52-11.8 321.52-10.95L321.52-10.95Q321.52-8.95 318.94-6.28 316.37-3.6 312.87-1.68 309.37 0.25 307.02 0.25L307.02 0.25Q304.77 0.25 303.12-0.93 301.47-2.1 300.59-3.55 299.72-5 299.72-5.7L299.72-5.7Q300.52-8.55 301.47-13.6L301.47-13.6 302.02-16.4Q302.22-17.4 303.47-18.48 304.72-19.55 306.27-20.28 307.82-21 308.77-21L308.77-21Q309.52-21 310.59-20.53 311.67-20.05 312.49-19.05 313.32-18.05 313.32-16.5L313.32-16.5Q313.32-14.7 312.12-13.1 310.92-11.5 308.57-10.5 306.22-9.5 302.92-9.5L302.92-9.5 302.22-6.15Q302.22-5.7 302.74-4.65 303.27-3.6 304.44-2.75 305.62-1.9 307.42-1.9L307.42-1.9Q309.82-1.9 312.47-3.48 315.12-5.05 317.32-7.4 319.52-9.75 320.62-11.95L320.62-11.95ZM308.37-18.95Q307.77-18.95 306.82-18.45 305.87-17.95 305.09-17.2 304.32-16.45 304.17-15.8L304.17-15.8Q303.67-13.55 303.27-11.25L303.27-11.25Q307.12-11.4 309.07-12.78 311.02-14.15 311.02-15.9L311.02-15.9Q311.02-17.15 310.12-18.05 309.22-18.95 308.37-18.95L308.37-18.95ZM342.72-12.2Q343.22-12.2 343.44-11.78 343.67-11.35 343.67-10.8L343.67-10.8Q343.67-9 341.77-6.25 339.87-3.5 336.94-1.45 334.02 0.6 331.17 0.6L331.17 0.6Q329.37 0.6 328.39-0.3 327.42-1.2 327.42-3.05L327.42-3.05Q327.42-5.6 328.82-9.98 330.22-14.35 331.37-17.25L331.37-17.25Q331.17-17.55 330.97-17.55L330.97-17.55Q330.77-17.55 330.52-17.4L330.52-17.4Q329.62-16.85 327.57-14.95 325.52-13.05 323.57-10.95 321.62-8.85 320.92-7.55L320.92-7.55Q320.12-5.4 319.92-4.83 319.72-4.25 319.52-2.95L319.52-2.95 319.07-0.7Q319.02-0.55 318.97-0.33 318.92-0.1 318.84-0.05 318.77 0 318.62 0L318.62 0Q318.17 0 317.44-0.1 316.72-0.2 316.72-0.4L316.72-0.4Q316.72-1 317.07-2.35 317.42-3.7 317.77-4.8 318.12-5.9 318.32-6.5L318.32-6.5 318.77-7.9Q320.22-12.9 320.74-15.18 321.27-17.45 321.77-20.25L321.77-20.25Q321.82-20.75 322.47-20.75L322.47-20.75Q322.92-20.75 323.49-20.53 324.07-20.3 324.17-19.9L324.17-19.9Q323.97-19 323.44-16.85 322.92-14.7 322.17-12.1L322.17-12.1Q325.07-15.35 328.19-18 331.32-20.65 332.37-20.65L332.37-20.65Q332.87-20.65 333.57-20.15 334.27-19.65 334.42-19.2L334.42-19.2Q332.82-14.9 331.37-9.83 329.92-4.75 329.92-3.15L329.92-3.15Q329.92-1.4 331.92-1.4L331.92-1.4Q334.87-1.4 337.89-4.7 340.92-8 342.72-12.2L342.72-12.2ZM360.06-8.3Q360.31-7.95 360.31-7.45L360.31-7.45Q360.31-7.05 360.16-6.75 360.01-6.45 359.66-6L359.66-6Q358.36-4.45 356.04-2.93 353.71-1.4 351.16-0.45 348.61 0.5 346.71 0.5L346.71 0.5Q344.56 0.5 343.14-0.83 341.71-2.15 341.71-4.8L341.71-4.8Q341.71-8.15 344.11-17.4L344.11-17.4 338.81-17.2Q338.71-17.25 338.54-17.38 338.36-17.5 338.31-17.6L338.31-17.6Q338.46-17.85 338.86-18.6 339.26-19.35 339.56-19.65L339.56-19.65 344.71-19.6Q346.36-25.7 348.51-32.15L348.51-32.15Q349.41-32.85 350.81-33.68 352.21-34.5 352.51-34.5L352.51-34.5Q352.96-34.3 353.06-33.95L353.06-33.95Q352.16-33.6 351.66-33.02 351.16-32.45 350.66-31.15L350.66-31.15Q349.21-27.45 347.16-19.6L347.16-19.6 359.91-19.55 359.96-18.75Q359.96-18.35 359.81-18.2 359.66-18.05 359.11-18L359.11-18Q358.41-17.95 346.61-17.5L346.61-17.5Q344.31-8.1 344.31-4.95L344.31-4.95Q344.31-3.2 345.16-2.38 346.01-1.55 347.76-1.55L347.76-1.55Q352.86-1.55 360.06-8.3L360.06-8.3ZM378.91-11.95Q379.81-11.8 379.81-10.95L379.81-10.95Q379.81-8.95 377.24-6.28 374.66-3.6 371.16-1.68 367.66 0.25 365.31 0.25L365.31 0.25Q363.06 0.25 361.41-0.93 359.76-2.1 358.88-3.55 358.01-5 358.01-5.7L358.01-5.7Q358.81-8.55 359.76-13.6L359.76-13.6 360.31-16.4Q360.51-17.4 361.76-18.48 363.01-19.55 364.56-20.28 366.11-21 367.06-21L367.06-21Q367.81-21 368.88-20.53 369.96-20.05 370.79-19.05 371.61-18.05 371.61-16.5L371.61-16.5Q371.61-14.7 370.41-13.1 369.21-11.5 366.86-10.5 364.51-9.5 361.21-9.5L361.21-9.5 360.51-6.15Q360.51-5.7 361.04-4.65 361.56-3.6 362.74-2.75 363.91-1.9 365.71-1.9L365.71-1.9Q368.11-1.9 370.76-3.48 373.41-5.05 375.61-7.4 377.81-9.75 378.91-11.95L378.91-11.95ZM366.66-18.95Q366.06-18.95 365.11-18.45 364.16-17.95 363.38-17.2 362.61-16.45 362.46-15.8L362.46-15.8Q361.96-13.55 361.56-11.25L361.56-11.25Q365.41-11.4 367.36-12.78 369.31-14.15 369.31-15.9L369.31-15.9Q369.31-17.15 368.41-18.05 367.51-18.95 366.66-18.95L366.66-18.95ZM399.41-17.85Q399.61-17.8 399.76-17.55 399.91-17.3 399.91-17L399.91-17Q399.91-15.95 398.93-14.98 397.96-14 396.38-13.4 394.81-12.8 393.21-12.8L393.21-12.8Q390.71-12.8 388.93-14.1 387.16-15.4 386.66-17.75L386.66-17.75Q384.41-17.5 382.53-14.9 380.66-12.3 379.91-9.25L379.91-9.25Q379.81-8.75 379.16-6.18 378.51-3.6 377.91-0.1L377.91-0.1Q377.86 0.05 377.78 0.13 377.71 0.2 377.46 0.2L377.46 0.2Q377.11 0.2 376.41-0.1 375.71-0.4 375.71-0.75L375.71-0.75Q375.71-1.45 375.96-2.6L375.96-2.6Q379.01-16.7 379.91-20.05L379.91-20.05Q380.01-20.5 380.13-20.65 380.26-20.8 380.56-20.8L380.56-20.8Q380.76-20.8 381.41-20.48 382.06-20.15 382.46-19.8L382.46-19.8 381.56-16.9 381.26-15.9Q382.41-17.7 383.91-18.8 385.41-19.9 387.11-19.9L387.11-19.9Q387.61-19.9 388.11-19.8 388.61-19.7 388.81-19.55L388.81-19.55Q388.81-17.1 390.08-15.93 391.36-14.75 393.66-14.75L393.66-14.75Q395.71-14.75 397.06-15.45 398.41-16.15 399.41-17.85L399.41-17.85Z" opacity="1" transform="matrix(1,0,0,1,0,0)" fill="#130912" class="wordmark-text-0" data-fill-palette-color="primary" id="text-0"></path></svg></g></svg></g></svg></g></svg></g><g transform="matrix(1,0,0,1,170.54271187897655,0)"><svg viewBox="0 0 56.41217624204681 50.25261922990092" height="50.25261922990092" width="56.41217624204681"><g><svg xmlns="http://www.w3.org/2000/svg" xmlns:xlink="http://www.w3.org/1999/xlink" version="1.1" x="0" y="0" viewBox="1.4769999980926514 3.5 37.045997619628906 33.00100326538086" enable-background="new 0 0 40 40" xml:space="preserve" height="50.25261922990092" width="56.41217624204681" class="icon-icon-0" data-fill-palette-color="accent" id="icon-0"><path d="M38.477 23.794V12c0-0.133-0.053-0.26-0.146-0.354l-0.854-0.854V6c0-0.276-0.224-0.5-0.5-0.5h-2.5V4c0-0.276-0.224-0.5-0.5-0.5h-3c-0.276 0-0.5 0.224-0.5 0.5v1.5h-2.5c-0.276 0-0.5 0.224-0.5 0.5v4.793l-0.854 0.854c-0.094 0.094-0.146 0.221-0.146 0.354v2.97h-1.11l-3.79-3.932V9.8c0-0.276-0.224-0.5-0.5-0.5h-2.199c-0.276 0-0.5 0.224-0.5 0.5v1.238l-3.79 3.932h-1.063v-4.229c0-0.276-0.224-0.5-0.5-0.5h-1.765V8.166c0-0.276-0.224-0.5-0.5-0.5H9.048V5.591c0-0.276-0.224-0.5-0.5-0.5H6.451c-0.276 0-0.5 0.224-0.5 0.5v2.075h-1.71c-0.276 0-0.5 0.224-0.5 0.5v2.075H1.977c-0.276 0-0.5 0.224-0.5 0.5V36c0 0.276 0.224 0.5 0.5 0.5h3.195v-3.347c0-1.531 1.165-2.731 2.652-2.731s2.652 1.2 2.652 2.731V36.5h1.735 0.812 1.862l-0.019-2.222c0-1.043 0.793-1.856 1.805-1.856s1.805 0.813 1.805 1.853l0.019 2.226h4.481 2.5v-3.029c0-2.271 1.724-4.049 3.924-4.049s3.924 1.778 3.924 4.049V36.5h4.699c0.276 0 0.5-0.224 0.5-0.5V24C38.523 23.926 38.506 23.857 38.477 23.794zM6.811 24c0 0.276-0.224 0.5-0.5 0.5H4.644c-0.276 0-0.5-0.224-0.5-0.5v-4c0-0.276 0.224-0.5 0.5-0.5h1.667c0.276 0 0.5 0.224 0.5 0.5V24zM6.811 17c0 0.276-0.224 0.5-0.5 0.5H4.644c-0.276 0-0.5-0.224-0.5-0.5v-4c0-0.276 0.224-0.5 0.5-0.5h1.667c0.276 0 0.5 0.224 0.5 0.5V17zM11.477 24c0 0.276-0.224 0.5-0.5 0.5H9.311c-0.276 0-0.5-0.224-0.5-0.5v-4c0-0.276 0.224-0.5 0.5-0.5h1.666c0.276 0 0.5 0.224 0.5 0.5V24zM11.477 17c0 0.276-0.224 0.5-0.5 0.5H9.311c-0.276 0-0.5-0.224-0.5-0.5v-4c0-0.276 0.224-0.5 0.5-0.5h1.666c0.276 0 0.5 0.224 0.5 0.5V17zM17.477 25v2c0 0.276-0.224 0.5-0.5 0.5h-2c-0.276 0-0.5-0.224-0.5-0.5v-2-1.001c0-0.826 0.673-1.499 1.5-1.499s1.5 0.673 1.5 1.499V25zM21.477 25v2c0 0.276-0.224 0.5-0.5 0.5h-2c-0.276 0-0.5-0.224-0.5-0.5v-2-1.001c0-0.826 0.673-1.499 1.5-1.499s1.5 0.673 1.5 1.499V25zM19.977 20.5c-1.186 0-2.15-0.964-2.15-2.149s0.965-2.15 2.15-2.15 2.15 0.965 2.15 2.15S21.162 20.5 19.977 20.5zM25.477 25v2c0 0.276-0.224 0.5-0.5 0.5h-2c-0.276 0-0.5-0.224-0.5-0.5v-2-1.001c0-0.826 0.673-1.499 1.5-1.499s1.5 0.673 1.5 1.499V25zM30.477 21c0 0.276-0.224 0.5-0.5 0.5h-0.666c-0.276 0-0.5-0.224-0.5-0.5v-2.6c0-0.276 0.224-0.5 0.5-0.5h0.666c0.276 0 0.5 0.224 0.5 0.5V21zM30.477 16c0 0.276-0.224 0.5-0.5 0.5h-0.666c-0.276 0-0.5-0.224-0.5-0.5v-2.6c0-0.276 0.224-0.5 0.5-0.5h0.666c0.276 0 0.5 0.224 0.5 0.5V16zM33.477 21c0 0.276-0.224 0.5-0.5 0.5h-0.666c-0.276 0-0.5-0.224-0.5-0.5v-2.6c0-0.276 0.224-0.5 0.5-0.5h0.666c0.276 0 0.5 0.224 0.5 0.5V21zM33.477 16c0 0.276-0.224 0.5-0.5 0.5h-0.666c-0.276 0-0.5-0.224-0.5-0.5v-2.6c0-0.276 0.224-0.5 0.5-0.5h0.666c0.276 0 0.5 0.224 0.5 0.5V16zM36.477 21c0 0.276-0.224 0.5-0.5 0.5h-0.666c-0.276 0-0.5-0.224-0.5-0.5v-2.6c0-0.276 0.224-0.5 0.5-0.5h0.666c0.276 0 0.5 0.224 0.5 0.5V21zM36.477 16c0 0.276-0.224 0.5-0.5 0.5h-0.666c-0.276 0-0.5-0.224-0.5-0.5v-2.6c0-0.276 0.224-0.5 0.5-0.5h0.666c0.276 0 0.5 0.224 0.5 0.5V16z" fill="#e77917" data-fill-palette-color="accent"></path></svg></g></svg></g><g></g></svg></g><defs></defs></svg><rect width="395.52" height="106.52990240052681" fill="none" stroke="none" visibility="hidden"></rect></g></svg></g></svg>